<svg xmlns="http://www.w3.org/2000/svg" viewBox="0 0 128 128" width="128" height="128"><path d="M 44 62 L 44 20 Q 44 10 53 10 Q 62 10 62 20 L 62 50 C 62 44 76 44 76 50 C 76 45 90 45 90 51 C 90 47 102 47 102 54 C 105 58 106 64 105 70 L 104 84 C 103 94 96 100 86 100 L 50 100 C 44 100 40 96 39 90 C 38 84 34 78 29 72 C 24 65 26 58 33 58 C 38 58 42 60 44 64 Z" fill="#3c3836" stroke="#3c3836" stroke-width="20" stroke-linejoin="round" stroke-linecap="round"/><rect x="40" y="100" width="56" height="14" rx="7" fill="#3c3836" stroke="#3c3836" stroke-width="20" stroke-linejoin="round" stroke-linecap="round"/><path d="M 44 62 L 44 20 Q 44 10 53 10 Q 62 10 62 20 L 62 50 C 62 44 76 44 76 50 C 76 45 90 45 90 51 C 90 47 102 47 102 54 C 105 58 106 64 105 70 L 104 84 C 103 94 96 100 86 100 L 50 100 C 44 100 40 96 39 90 C 38 84 34 78 29 72 C 24 65 26 58 33 58 C 38 58 42 60 44 64 Z" fill="#fbf1c7" stroke="#fbf1c7" stroke-width="5" stroke-linejoin="round" stroke-linecap="round"/><rect x="40" y="100" width="56" height="14" rx="7" fill="#fbf1c7" stroke="#fbf1c7" stroke-width="5" stroke-linejoin="round" stroke-linecap="round"/><path d="M 62 52 L 62 70" fill="none" stroke="#3c3836" stroke-width="4" stroke-linecap="round" opacity="0.65"/><path d="M 76 50 L 76 70" fill="none" stroke="#3c3836" stroke-width="4" stroke-linecap="round" opacity="0.65"/><path d="M 90 52 L 90 71" fill="none" stroke="#3c3836" stroke-width="4" stroke-linecap="round" opacity="0.65"/><path d="M 40 66 Q 34 70 33 78" fill="none" stroke="#3c3836" stroke-width="4" stroke-linecap="round" opacity="0.65"/><path d="M 44 101 L 92 101" fill="none" stroke="#3c3836" stroke-width="4" stroke-linecap="round" opacity="0.65"/></svg>