<?xml version="1.0" encoding="UTF-8"?>
<svg xmlns="http://www.w3.org/2000/svg" width="460" height="76" viewBox="0 0 460 76">
<defs>
<style type="text/css" id="current-color-scheme">
            .ColorScheme-Text {
                color:#ebdbb2;
                stop-color:#ebdbb2;
            }
            .ColorScheme-Background {
                color:#181616;
                stop-color:#181616;
            }
        </style>
<linearGradient id="sg-top" x1="0" y1="0" x2="0" y2="1"><stop offset="0" stop-color="#000" stop-opacity="0"/><stop offset="0.25" stop-color="#000" stop-opacity="0.09"/><stop offset="0.556" stop-color="#000" stop-opacity="0.3"/><stop offset="1" stop-color="#000" stop-opacity="0.3"/></linearGradient>
<linearGradient id="sg-bottom" x1="0" y1="1" x2="0" y2="0"><stop offset="0" stop-color="#000" stop-opacity="0"/><stop offset="0.25" stop-color="#000" stop-opacity="0.09"/><stop offset="0.556" stop-color="#000" stop-opacity="0.3"/><stop offset="1" stop-color="#000" stop-opacity="0.3"/></linearGradient>
<linearGradient id="sg-left" x1="0" y1="0" x2="1" y2="0"><stop offset="0" stop-color="#000" stop-opacity="0"/><stop offset="0.25" stop-color="#000" stop-opacity="0.09"/><stop offset="0.556" stop-color="#000" stop-opacity="0.3"/><stop offset="1" stop-color="#000" stop-opacity="0.3"/></linearGradient>
<linearGradient id="sg-right" x1="1" y1="0" x2="0" y2="0"><stop offset="0" stop-color="#000" stop-opacity="0"/><stop offset="0.25" stop-color="#000" stop-opacity="0.09"/><stop offset="0.556" stop-color="#000" stop-opacity="0.3"/><stop offset="1" stop-color="#000" stop-opacity="0.3"/></linearGradient>
<radialGradient id="sg-c-topleft" cx="18" cy="18" r="18" gradientUnits="userSpaceOnUse"><stop offset="0" stop-color="#000" stop-opacity="0.3"/><stop offset="0.444" stop-color="#000" stop-opacity="0.3"/><stop offset="0.722" stop-color="#000" stop-opacity="0.09"/><stop offset="1" stop-color="#000" stop-opacity="0"/></radialGradient>
<radialGradient id="sg-c-topright" cx="0" cy="18" r="18" gradientUnits="userSpaceOnUse"><stop offset="0" stop-color="#000" stop-opacity="0.3"/><stop offset="0.444" stop-color="#000" stop-opacity="0.3"/><stop offset="0.722" stop-color="#000" stop-opacity="0.09"/><stop offset="1" stop-color="#000" stop-opacity="0"/></radialGradient>
<radialGradient id="sg-c-bottomright" cx="0" cy="0" r="18" gradientUnits="userSpaceOnUse"><stop offset="0" stop-color="#000" stop-opacity="0.3"/><stop offset="0.444" stop-color="#000" stop-opacity="0.3"/><stop offset="0.722" stop-color="#000" stop-opacity="0.09"/><stop offset="1" stop-color="#000" stop-opacity="0"/></radialGradient>
<radialGradient id="sg-c-bottomleft" cx="18" cy="0" r="18" gradientUnits="userSpaceOnUse"><stop offset="0" stop-color="#000" stop-opacity="0.3"/><stop offset="0.444" stop-color="#000" stop-opacity="0.3"/><stop offset="0.722" stop-color="#000" stop-opacity="0.09"/><stop offset="1" stop-color="#000" stop-opacity="0"/></radialGradient>
</defs>
<g id="center" transform="translate(0,0)"><rect x="0" y="0" width="32" height="32" class="ColorScheme-Background" style="fill:currentColor;fill-opacity:0.9"/></g>
<g id="topleft" transform="translate(36,0)"><path d="M 8 0 A 8 8 0 0 0 0 8 L 8 8 Z" class="ColorScheme-Background" style="fill:currentColor;fill-opacity:0.9"/><path d="M 8 0 A 8 8 0 0 0 0 8 L 1 8 A 7 7 0 0 1 8 1 Z" class="ColorScheme-Text" style="fill:currentColor;fill-opacity:0.07"/></g>
<g id="topright" transform="translate(48,0)"><path d="M 8 8 A 8 8 0 0 0 0 0 L 0 8 Z" class="ColorScheme-Background" style="fill:currentColor;fill-opacity:0.9"/><path d="M 8 8 A 8 8 0 0 0 0 0 L 0 1 A 7 7 0 0 1 7 8 Z" class="ColorScheme-Text" style="fill:currentColor;fill-opacity:0.07"/></g>
<g id="bottomright" transform="translate(60,0)"><path d="M 0 8 A 8 8 0 0 0 8 0 L 0 0 Z" class="ColorScheme-Background" style="fill:currentColor;fill-opacity:0.9"/><path d="M 0 8 A 8 8 0 0 0 8 0 L 7 0 A 7 7 0 0 1 0 7 Z" class="ColorScheme-Text" style="fill:currentColor;fill-opacity:0.07"/></g>
<g id="bottomleft" transform="translate(72,0)"><path d="M 0 0 A 8 8 0 0 0 8 8 L 8 0 Z" class="ColorScheme-Background" style="fill:currentColor;fill-opacity:0.9"/><path d="M 0 0 A 8 8 0 0 0 8 8 L 8 7 A 7 7 0 0 1 1 0 Z" class="ColorScheme-Text" style="fill:currentColor;fill-opacity:0.07"/></g>
<g id="top" transform="translate(84,0)"><rect x="0" y="0" width="32" height="8" class="ColorScheme-Background" style="fill:currentColor;fill-opacity:0.9"/><rect x="0" y="0" width="32" height="1" class="ColorScheme-Text" style="fill:currentColor;fill-opacity:0.07"/></g>
<g id="bottom" transform="translate(120,0)"><rect x="0" y="0" width="32" height="8" class="ColorScheme-Background" style="fill:currentColor;fill-opacity:0.9"/><rect x="0" y="7" width="32" height="1" class="ColorScheme-Text" style="fill:currentColor;fill-opacity:0.07"/></g>
<g id="left" transform="translate(156,0)"><rect x="0" y="0" width="8" height="32" class="ColorScheme-Background" style="fill:currentColor;fill-opacity:0.9"/><rect x="0" y="0" width="1" height="32" class="ColorScheme-Text" style="fill:currentColor;fill-opacity:0.07"/></g>
<g id="right" transform="translate(168,0)"><rect x="0" y="0" width="8" height="32" class="ColorScheme-Background" style="fill:currentColor;fill-opacity:0.9"/><rect x="7" y="0" width="1" height="32" class="ColorScheme-Text" style="fill:currentColor;fill-opacity:0.07"/></g>
<g id="mask-center" transform="translate(180,0)"><rect width="32" height="32" style="fill:#000"/></g>
<g id="mask-topleft" transform="translate(216,0)"><path d="M 8 0 A 8 8 0 0 0 0 8 L 8 8 Z" style="fill:#000000"/></g>
<g id="mask-topright" transform="translate(228,0)"><path d="M 8 8 A 8 8 0 0 0 0 0 L 0 8 Z" style="fill:#000000"/></g>
<g id="mask-bottomright" transform="translate(240,0)"><path d="M 0 8 A 8 8 0 0 0 8 0 L 0 0 Z" style="fill:#000000"/></g>
<g id="mask-bottomleft" transform="translate(252,0)"><path d="M 0 0 A 8 8 0 0 0 8 8 L 8 0 Z" style="fill:#000000"/></g>
<g id="mask-top" transform="translate(264,0)"><rect x="0" y="0" width="32" height="8" style="fill:#000"/></g>
<g id="mask-bottom" transform="translate(300,0)"><rect x="0" y="0" width="32" height="8" style="fill:#000"/></g>
<g id="mask-left" transform="translate(336,0)"><rect x="0" y="0" width="8" height="32" style="fill:#000"/></g>
<g id="mask-right" transform="translate(348,0)"><rect x="0" y="0" width="8" height="32" style="fill:#000"/></g>
<g id="shadow-center" transform="translate(360,0)"></g>
<g id="shadow-topleft" transform="translate(396,0)"><rect width="18" height="18" style="fill:url(#sg-c-topleft)"/></g>
<g id="shadow-topright" transform="translate(0,36)"><rect width="18" height="18" style="fill:url(#sg-c-topright)"/></g>
<g id="shadow-bottomright" transform="translate(22,36)"><rect width="18" height="18" style="fill:url(#sg-c-bottomright)"/></g>
<g id="shadow-bottomleft" transform="translate(44,36)"><rect width="18" height="18" style="fill:url(#sg-c-bottomleft)"/></g>
<g id="shadow-top" transform="translate(66,36)"><rect width="32" height="18" style="fill:url(#sg-top)"/></g>
<g id="shadow-bottom" transform="translate(102,36)"><rect width="32" height="18" style="fill:url(#sg-bottom)"/></g>
<g id="shadow-left" transform="translate(138,36)"><rect width="18" height="32" style="fill:url(#sg-left)"/></g>
<g id="shadow-right" transform="translate(160,36)"><rect width="18" height="32" style="fill:url(#sg-right)"/></g>
<g id="shadow-hint-top-margin" transform="translate(182,36)"><rect width="10" height="10" style="fill:#f0f"/></g>
<g id="shadow-hint-top-inset" transform="translate(196,36)"><rect width="8" height="8" style="fill:#f0f"/></g>
<g id="shadow-hint-bottom-margin" transform="translate(208,36)"><rect width="10" height="10" style="fill:#f0f"/></g>
<g id="shadow-hint-bottom-inset" transform="translate(222,36)"><rect width="8" height="8" style="fill:#f0f"/></g>
<g id="shadow-hint-left-margin" transform="translate(234,36)"><rect width="10" height="10" style="fill:#f0f"/></g>
<g id="shadow-hint-left-inset" transform="translate(248,36)"><rect width="8" height="8" style="fill:#f0f"/></g>
<g id="shadow-hint-right-margin" transform="translate(260,36)"><rect width="10" height="10" style="fill:#f0f"/></g>
<g id="shadow-hint-right-inset" transform="translate(274,36)"><rect width="8" height="8" style="fill:#f0f"/></g>
<g id="hint-top-margin" transform="translate(286,36)"><rect width="8" height="8" style="fill:#f0f"/></g>
<g id="hint-bottom-margin" transform="translate(298,36)"><rect width="8" height="8" style="fill:#f0f"/></g>
<g id="hint-left-margin" transform="translate(310,36)"><rect width="8" height="8" style="fill:#f0f"/></g>
<g id="hint-right-margin" transform="translate(322,36)"><rect width="8" height="8" style="fill:#f0f"/></g>
</svg>
