<svg xmlns="http://www.w3.org/2000/svg" viewBox="0 0 128 128" width="128" height="128"><circle cx="64" cy="64" r="41" fill="#faf4ed"/><path d="M 64 64 L 102.0 64.0 A 38 38 0 0 1 83.0 96.9 Z" fill="#31748f"/><path d="M 64 64 L 83.0 96.9 A 38 38 0 0 1 45.0 96.9 Z" fill="#9ccfd8"/><path d="M 64 64 L 45.0 96.9 A 38 38 0 0 1 26.0 64.0 Z" fill="#ebbcba"/><path d="M 64 64 L 26.0 64.0 A 38 38 0 0 1 45.0 31.1 Z" fill="#f6c177"/><path d="M 64 64 L 45.0 31.1 A 38 38 0 0 1 83.0 31.1 Z" fill="#f6c177"/><path d="M 64 64 L 83.0 31.1 A 38 38 0 0 1 102.0 64.0 Z" fill="#c4a7e7"/><circle cx="64" cy="64" r="10.6" fill="#faf4ed" stroke="#faf4ed" stroke-width="4"/></svg>