<svg xmlns="http://www.w3.org/2000/svg" viewBox="0 0 128 128" width="128" height="128"><path d="M 29.7 59.8 Q 25.6 40.4 24.2 24.1 A 6.5 6.5 0 0 1 36.9 21.4 Q 42.2 36.9 46.3 56.2 Z" fill="#fbf1c7" stroke="#fbf1c7" stroke-width="20" stroke-linejoin="round" stroke-linecap="round"/><path d="M 47.5 56.6 Q 45.6 32.5 45.9 12.6 A 7.0 7.0 0 0 1 59.9 11.6 Q 63.0 31.2 64.5 55.4 Z" fill="#fbf1c7" stroke="#fbf1c7" stroke-width="20" stroke-linejoin="round" stroke-linecap="round"/><path d="M 65.5 56.4 Q 67.1 34.5 70.3 16.6 A 6.5 6.5 0 0 1 83.3 17.6 Q 84.0 35.6 82.5 57.6 Z" fill="#fbf1c7" stroke="#fbf1c7" stroke-width="20" stroke-linejoin="round" stroke-linecap="round"/><path d="M 82.7 58.3 Q 86.4 42.2 91.4 29.5 A 5.5 5.5 0 0 1 102.1 32.0 Q 101.0 45.6 97.3 61.7 Z" fill="#fbf1c7" stroke="#fbf1c7" stroke-width="20" stroke-linejoin="round" stroke-linecap="round"/><path d="M 33.8 82.8 Q 24.3 77.2 17.6 70.9 A 6.5 6.5 0 0 1 24.5 59.9 Q 33.0 63.2 42.2 69.2 Z" fill="#fbf1c7" stroke="#fbf1c7" stroke-width="20" stroke-linejoin="round" stroke-linecap="round"/><path d="M 26 66 C 25 58 30 54 38 54 L 92 54 C 100 54 104 60 104 68 C 105 78 103 88 96 95 C 88 102 74 104 60 103 C 44 102 32 98 28 88 C 25 80 25 72 26 66 Z" fill="#fbf1c7" stroke="#fbf1c7" stroke-width="20" stroke-linejoin="round" stroke-linecap="round"/><rect x="34" y="102" width="62" height="14" rx="7" fill="#fbf1c7" stroke="#fbf1c7" stroke-width="20" stroke-linejoin="round" stroke-linecap="round"/><path d="M 29.7 59.8 Q 25.6 40.4 24.2 24.1 A 6.5 6.5 0 0 1 36.9 21.4 Q 42.2 36.9 46.3 56.2 Z" fill="#3c3836" stroke="#3c3836" stroke-width="5" stroke-linejoin="round" stroke-linecap="round"/><path d="M 47.5 56.6 Q 45.6 32.5 45.9 12.6 A 7.0 7.0 0 0 1 59.9 11.6 Q 63.0 31.2 64.5 55.4 Z" fill="#3c3836" stroke="#3c3836" stroke-width="5" stroke-linejoin="round" stroke-linecap="round"/><path d="M 65.5 56.4 Q 67.1 34.5 70.3 16.6 A 6.5 6.5 0 0 1 83.3 17.6 Q 84.0 35.6 82.5 57.6 Z" fill="#3c3836" stroke="#3c3836" stroke-width="5" stroke-linejoin="round" stroke-linecap="round"/><path d="M 82.7 58.3 Q 86.4 42.2 91.4 29.5 A 5.5 5.5 0 0 1 102.1 32.0 Q 101.0 45.6 97.3 61.7 Z" fill="#3c3836" stroke="#3c3836" stroke-width="5" stroke-linejoin="round" stroke-linecap="round"/><path d="M 33.8 82.8 Q 24.3 77.2 17.6 70.9 A 6.5 6.5 0 0 1 24.5 59.9 Q 33.0 63.2 42.2 69.2 Z" fill="#3c3836" stroke="#3c3836" stroke-width="5" stroke-linejoin="round" stroke-linecap="round"/><path d="M 26 66 C 25 58 30 54 38 54 L 92 54 C 100 54 104 60 104 68 C 105 78 103 88 96 95 C 88 102 74 104 60 103 C 44 102 32 98 28 88 C 25 80 25 72 26 66 Z" fill="#3c3836" stroke="#3c3836" stroke-width="5" stroke-linejoin="round" stroke-linecap="round"/><rect x="34" y="102" width="62" height="14" rx="7" fill="#3c3836" stroke="#3c3836" stroke-width="5" stroke-linejoin="round" stroke-linecap="round"/><path d="M 47 57 Q 46 66 43 73" fill="none" stroke="#fbf1c7" stroke-width="4" stroke-linecap="round" opacity="0.65"/><path d="M 65 55 Q 65 63 64 71" fill="none" stroke="#fbf1c7" stroke-width="4" stroke-linecap="round" opacity="0.65"/><path d="M 82 57 Q 82 64 80 70" fill="none" stroke="#fbf1c7" stroke-width="4" stroke-linecap="round" opacity="0.65"/><path d="M 38 103 Q 64 107 92 103" fill="none" stroke="#fbf1c7" stroke-width="4" stroke-linecap="round" opacity="0.65"/></svg>